# xmcd
#
# Track frame offsets: 
#        150
#        15776
#        33177
#        62953
#        80153
#        99654
#        116891
#        133579
#        163005
#        177105
#        201268
#        215006
#
# Disc length: 3151 seconds
#
# Revision: 4
# Processed by: cddbd v1.5.2PL0 Copyright (c) Steve Scherf et al.
# Submitted via: ExactAudioCopyFreeDBPlugin 1.0
#
DISCID=a60c4d0c
DTITLE=Grant and Forsyth - 1991 - Country Love Songs vol.2
DYEAR=1991
DGENRE=Country
TTITLE0=He's Out Of My Life
TTITLE1=Don't Stay
TTITLE2=Medley
TTITLE3=Stay
TTITLE4=It Ain't Easy
TTITLE5=I Am ' I said
TTITLE6=Without You
TTITLE7=Medley
TTITLE8=Talking In Your Sleep
TTITLE9=Sweet Sixteen
TTITLE10=Turning Over New Leaves
TTITLE11=Soul On Fire
EXTD=GoodDay's verzameling
EXTT0=
EXTT1=
EXTT2=
EXTT3=
EXTT4=
EXTT5=
EXTT6=
EXTT7=
EXTT8=
EXTT9=
EXTT10=
EXTT11=
PLAYORDER=
